# Simple character placeholder
v -0.2100 0.0000 0.0600
v -0.0900 0.0000 0.0600
v -0.0900 0.5000 0.0600
v -0.2100 0.5000 0.0600
v -0.2100 0.0000 -0.0600
v -0.0900 0.0000 -0.0600
v -0.0900 0.5000 -0.0600
v -0.2100 0.5000 -0.0600
v 0.0900 0.0000 0.0600
v 0.2100 0.0000 0.0600
v 0.2100 0.5000 0.0600
v 0.0900 0.5000 0.0600
v 0.0900 0.0000 -0.0600
v 0.2100 0.0000 -0.0600
v 0.2100 0.5000 -0.0600
v 0.0900 0.5000 -0.0600
v -0.1750 0.5000 0.1000
v 0.1750 0.5000 0.1000
v 0.1750 0.9000 0.1000
v -0.1750 0.9000 0.1000
v -0.1750 0.5000 -0.1000
v 0.1750 0.5000 -0.1000
v 0.1750 0.9000 -0.1000
v -0.1750 0.9000 -0.1000
v -0.3200 0.4750 0.0500
v -0.2200 0.4750 0.0500
v -0.2200 0.8250 0.0500
v -0.3200 0.8250 0.0500
v -0.3200 0.4750 -0.0500
v -0.2200 0.4750 -0.0500
v -0.2200 0.8250 -0.0500
v -0.3200 0.8250 -0.0500
v 0.2200 0.4750 0.0500
v 0.3200 0.4750 0.0500
v 0.3200 0.8250 0.0500
v 0.2200 0.8250 0.0500
v 0.2200 0.4750 -0.0500
v 0.3200 0.4750 -0.0500
v 0.3200 0.8250 -0.0500
v 0.2200 0.8250 -0.0500
v -0.1100 0.9400 0.1100
v 0.1100 0.9400 0.1100
v 0.1100 1.1600 0.1100
v -0.1100 1.1600 0.1100
v -0.1100 0.9400 -0.1100
v 0.1100 0.9400 -0.1100
v 0.1100 1.1600 -0.1100
v -0.1100 1.1600 -0.1100
vt 0.0000 0.0000
vt 0.2500 0.0000
vt 0.2500 0.3300
vt 0.0000 0.3300
vt 0.0000 0.0000
vt 0.2500 0.0000
vt 0.2500 0.3300
vt 0.0000 0.3300
vt 0.0000 0.0000
vt 0.2500 0.0000
vt 0.2500 0.3300
vt 0.0000 0.3300
vt 0.0000 0.0000
vt 0.2500 0.0000
vt 0.2500 0.3300
vt 0.0000 0.3300
vt 0.2500 0.0000
vt 0.7500 0.0000
vt 0.7500 0.5000
vt 0.2500 0.5000
vt 0.2500 0.0000
vt 0.7500 0.0000
vt 0.7500 0.5000
vt 0.2500 0.5000
vt 0.2500 0.5000
vt 0.5000 0.5000
vt 0.5000 1.0000
vt 0.2500 1.0000
vt 0.2500 0.5000
vt 0.5000 0.5000
vt 0.5000 1.0000
vt 0.2500 1.0000
vt 0.2500 0.5000
vt 0.5000 0.5000
vt 0.5000 1.0000
vt 0.2500 1.0000
vt 0.2500 0.5000
vt 0.5000 0.5000
vt 0.5000 1.0000
vt 0.2500 1.0000
vt 0.5000 0.5000
vt 1.0000 0.5000
vt 1.0000 1.0000
vt 0.5000 1.0000
vt 0.5000 0.5000
vt 1.0000 0.5000
vt 1.0000 1.0000
vt 0.5000 1.0000
vn 0.0000 0.0000 1.0000
vn 0.0000 0.0000 -1.0000
vn 1.0000 0.0000 0.0000
vn -1.0000 0.0000 0.0000
vn 0.0000 1.0000 0.0000
vn 0.0000 -1.0000 0.0000
vn 0.0000 0.0000 1.0000
vn 0.0000 0.0000 -1.0000
vn 1.0000 0.0000 0.0000
vn -1.0000 0.0000 0.0000
vn 0.0000 1.0000 0.0000
vn 0.0000 -1.0000 0.0000
vn 0.0000 0.0000 1.0000
vn 0.0000 0.0000 -1.0000
vn 1.0000 0.0000 0.0000
vn -1.0000 0.0000 0.0000
vn 0.0000 1.0000 0.0000
vn 0.0000 -1.0000 0.0000
vn 0.0000 0.0000 1.0000
vn 0.0000 0.0000 -1.0000
vn 1.0000 0.0000 0.0000
vn -1.0000 0.0000 0.0000
vn 0.0000 1.0000 0.0000
vn 0.0000 -1.0000 0.0000
vn 0.0000 0.0000 1.0000
vn 0.0000 0.0000 -1.0000
vn 1.0000 0.0000 0.0000
vn -1.0000 0.0000 0.0000
vn 0.0000 1.0000 0.0000
vn 0.0000 -1.0000 0.0000
vn 0.0000 0.0000 1.0000
vn 0.0000 0.0000 -1.0000
vn 1.0000 0.0000 0.0000
vn -1.0000 0.0000 0.0000
vn 0.0000 1.0000 0.0000
vn 0.0000 -1.0000 0.0000
f 1/1/1 2/2/1 3/3/1
f 1/1/1 3/3/1 4/4/1
f 6/6/2 5/5/2 8/8/2
f 6/6/2 8/8/2 7/7/2
f 2/2/3 6/6/3 7/7/3
f 2/2/3 7/7/3 3/3/3
f 5/5/4 1/1/4 4/4/4
f 5/5/4 4/4/4 8/8/4
f 4/4/5 3/3/5 7/7/5
f 4/4/5 7/7/5 8/8/5
f 5/5/6 6/6/6 2/2/6
f 5/5/6 2/2/6 1/1/6
f 9/9/7 10/10/7 11/11/7
f 9/9/7 11/11/7 12/12/7
f 14/14/8 13/13/8 16/16/8
f 14/14/8 16/16/8 15/15/8
f 10/10/9 14/14/9 15/15/9
f 10/10/9 15/15/9 11/11/9
f 13/13/10 9/9/10 12/12/10
f 13/13/10 12/12/10 16/16/10
f 12/12/11 11/11/11 15/15/11
f 12/12/11 15/15/11 16/16/11
f 13/13/12 14/14/12 10/10/12
f 13/13/12 10/10/12 9/9/12
f 17/17/13 18/18/13 19/19/13
f 17/17/13 19/19/13 20/20/13
f 22/22/14 21/21/14 24/24/14
f 22/22/14 24/24/14 23/23/14
f 18/18/15 22/22/15 23/23/15
f 18/18/15 23/23/15 19/19/15
f 21/21/16 17/17/16 20/20/16
f 21/21/16 20/20/16 24/24/16
f 20/20/17 19/19/17 23/23/17
f 20/20/17 23/23/17 24/24/17
f 21/21/18 22/22/18 18/18/18
f 21/21/18 18/18/18 17/17/18
f 25/25/19 26/26/19 27/27/19
f 25/25/19 27/27/19 28/28/19
f 30/30/20 29/29/20 32/32/20
f 30/30/20 32/32/20 31/31/20
f 26/26/21 30/30/21 31/31/21
f 26/26/21 31/31/21 27/27/21
f 29/29/22 25/25/22 28/28/22
f 29/29/22 28/28/22 32/32/22
f 28/28/23 27/27/23 31/31/23
f 28/28/23 31/31/23 32/32/23
f 29/29/24 30/30/24 26/26/24
f 29/29/24 26/26/24 25/25/24
f 33/33/25 34/34/25 35/35/25
f 33/33/25 35/35/25 36/36/25
f 38/38/26 37/37/26 40/40/26
f 38/38/26 40/40/26 39/39/26
f 34/34/27 38/38/27 39/39/27
f 34/34/27 39/39/27 35/35/27
f 37/37/28 33/33/28 36/36/28
f 37/37/28 36/36/28 40/40/28
f 36/36/29 35/35/29 39/39/29
f 36/36/29 39/39/29 40/40/29
f 37/37/30 38/38/30 34/34/30
f 37/37/30 34/34/30 33/33/30
f 41/41/31 42/42/31 43/43/31
f 41/41/31 43/43/31 44/44/31
f 46/46/32 45/45/32 48/48/32
f 46/46/32 48/48/32 47/47/32
f 42/42/33 46/46/33 47/47/33
f 42/42/33 47/47/33 43/43/33
f 45/45/34 41/41/34 44/44/34
f 45/45/34 44/44/34 48/48/34
f 44/44/35 43/43/35 47/47/35
f 44/44/35 47/47/35 48/48/35
f 45/45/36 46/46/36 42/42/36
f 45/45/36 42/42/36 41/41/36
